Coordinates
version=1
nRows=21
nColumns=22
inDegrees=yes

Units are S.I. units (second, meters, Newtons, ...)
If the header above contains a line with 'inDegrees', this indicates whether rotational values are in degrees (yes) or radians (no).

endheader
time	pelvis_tilt	pelvis_list	pelvis_rotation	pelvis_tx	pelvis_ty	pelvis_tz	hip_flexion_r	hip_adduction_r	hip_rotation_r	knee_angle_r	ankle_angle_r	subtalar_angle_r	hip_flexion_l	hip_adduction_l	hip_rotation_l	knee_angle_l	ankle_angle_l	subtalar_angle_l	lumbar_extension	lumbar_bending	lumbar_rotation
      1.22000000	     -2.60297641	     -0.41580339	     -7.33414001	     -0.95724100	      0.88726329	      0.04511482	    -15.23123616	      0.50382272	      6.98284308	    -17.57857483	     10.91905665	      2.24475888	     31.45581445	     -5.55515362	    -14.89068130	    -28.63979439	      0.35985072	     -4.02230964	     -7.34000362	     -4.43227516	     10.37713010
      1.23000000	     -2.52560597	     -0.16669644	     -7.37167476	     -0.94681377	      0.88830922	      0.04373893	    -15.33821275	      0.11179369	      7.07398615	    -18.47822812	      9.56195425	      2.58246209	     31.21322094	     -5.19617225	    -14.75048333	    -29.61599877	      0.65616412	     -4.41097180	     -7.21906226	     -4.75403572	     10.23435116
      1.24000000	     -2.42344825	      0.07643432	     -7.42647948	     -0.93624817	      0.88958227	      0.04228293	    -15.30540788	     -0.26756373	      7.09277855	    -19.64036138	      8.01704493	      3.01634853	     30.83117260	     -4.80799680	    -14.61495779	    -30.40030652	      1.00502826	     -4.76247922	     -7.11579231	     -5.05741749	     10.12880437
      1.25000000	     -2.35364949	      0.31761627	     -7.49507170	     -0.92553202	      0.89098566	      0.04079475	    -15.09134541	     -0.61996245	      7.10462870	    -21.01529838	      6.20585313	      3.38025660	     30.35910026	     -4.39682366	    -14.49104262	    -30.97602768	      1.40811066	     -4.94022513	     -6.95110683	     -5.34548392	      9.99883442
      1.26000000	     -2.29230065	      0.52488196	     -7.57840775	     -0.91474911	      0.89250504	      0.03927448	    -14.69505167	     -0.92073402	      7.06712569	    -22.63791427	      4.13267400	      3.75371416	     29.78734576	     -4.00074558	    -14.39650012	    -31.37459753	      1.88236512	     -5.03290173	     -6.76961343	     -5.58492305	      9.85668623
      1.27000000	     -2.23925743	      0.68201184	     -7.67400435	     -0.90396669	      0.89411532	      0.03773333	    -14.10984813	     -1.15413547	      6.98165431	    -24.50590455	      1.78051021	      4.10323923	     29.12574866	     -3.63658208	    -14.31520810	    -31.60846627	      2.40640768	     -5.05607466	     -6.58295364	     -5.75731569	      9.69298171
      1.28000000	     -2.18842422	      0.78229736	     -7.77310917	     -0.89323015	      0.89578370	      0.03617634	    -13.33754734	     -1.31700432	      6.83772964	    -26.62018424	     -0.83037459	      4.52522921	     28.38920143	     -3.31997802	    -14.27190564	    -31.71815746	      3.01187994	     -5.03326316	     -6.40781456	     -5.85704655	      9.48030242
      1.29000000	     -2.13276715	      0.82468337	     -7.87407509	     -0.88260335	      0.89751244	      0.03462627	    -12.38310481	     -1.41094770	      6.63926841	    -28.97452149	     -3.67723866	      4.93749293	     27.58056645	     -3.04992369	    -14.23998101	    -31.70733709	      3.62497494	     -4.97829175	     -6.26218337	     -5.88701142	      9.22476769
      1.30000000	     -2.06708540	      0.82481317	     -7.97417612	     -0.87213122	      0.89926971	      0.03309042	    -11.24745250	     -1.45734672	      6.38806162	    -31.57437128	     -6.67723250	      5.38541962	     26.71598583	     -2.81840293	    -14.23690075	    -31.60873215	      4.25472074	     -4.90792115	     -6.15851491	     -5.86776558	      8.91567446
      1.31000000	     -1.98947893	      0.80509081	     -8.07155993	     -0.86185399	      0.90102868	      0.03156686	     -9.92834656	     -1.48390086	      6.08870206	    -34.42279625	     -9.72861069	      5.85912735	     25.80761438	     -2.60560171	    -14.27070897	    -31.43487097	      4.87570723	     -4.83629868	     -6.10214725	     -5.82489637	      8.55177150
      1.32000000	     -1.90045151	      0.79400541	     -8.16740713	     -0.85180671	      0.90274895	      0.03005575	     -8.42597856	     -1.52183670	      5.76204390	    -37.50966251	    -12.70899475	      6.34477484	     24.87096966	     -2.38443127	    -14.34285012	    -31.19981484	      5.48753437	     -4.77166958	     -6.09322591	     -5.79120374	      8.14008334
      1.33000000	     -1.77556831	      0.82332901	     -8.26222268	     -0.84201036	      0.90444159	      0.02856997	     -6.77447798	     -1.61206223	      5.40454144	    -40.79953941	    -15.50808041	      6.72793018	     23.89172400	     -2.12049793	    -14.45710884	    -30.90821757	      6.00463686	     -4.72154289	     -6.15850448	     -5.80981288	      7.68731147
      1.34000000	     -1.67966777	      0.90119623	     -8.34511895	     -0.83247759	      0.90594360	      0.02706427	     -4.92096412	     -1.74469450	      5.06938062	    -44.25207596	    -17.95264062	      7.21736532	     22.96259361	     -1.81449762	    -14.61379504	    -30.60299055	      6.56233720	     -4.68092684	     -6.22042498	     -5.86952034	      7.18485681
      1.35000000	     -1.51963127	      1.05715167	     -8.42522678	     -0.82317773	      0.90741566	      0.02558162	     -2.99767113	     -1.97175643	      4.73476071	    -47.76368216	    -19.97562352	      7.52248131	     21.97253933	     -1.42020023	    -14.80728479	    -30.24792702	      6.96822689	     -4.63900427	     -6.38004050	     -6.02743146	      6.66282795
      1.36000000	     -1.39561202	      1.28663397	     -8.50032462	     -0.81411639	      0.90865025	      0.02415431	     -0.92454882	     -2.24121440	      4.48666394	    -51.27820181	    -21.38405567	      7.85893506	     21.05055402	     -0.96279999	    -15.03144498	    -29.89230135	      7.40674052	     -4.60796738	     -6.51414452	     -6.26326627	      6.07737439
      1.37000000	     -1.23491091	      1.55760384	     -8.56496929	     -0.80525727	      0.90979694	      0.02275926	      1.17496889	     -2.53875398	      4.28305560	    -54.68038811	    -22.19198851	      8.05989344	     20.10645025	     -0.45243986	    -15.24155207	    -29.51661091	      7.76770970	     -4.57019930	     -6.71096471	     -6.55025111	      5.51581840
      1.38000000	     -1.06955170	      1.85873486	     -8.61980226	     -0.79656042	      0.91081786	      0.02142469	      3.30033109	     -2.82500524	      4.15849035	    -57.89985812	    -22.36033432	      8.11767316	     19.16762975	      0.09128808	    -15.44380690	    -29.12065303	      8.11971299	     -4.52896505	     -6.92558385	     -6.87063384	      4.93411266
      1.39000000	     -0.88827674	      2.15867557	     -8.65689463	     -0.78798819	      0.91176134	      0.02013784	      5.40565197	     -3.07067384	      4.08237389	    -60.86797885	    -21.97552482	      8.01252665	     18.21478884	      0.64055211	    -15.62967646	    -28.70305168	      8.44159568	     -4.47727861	     -7.17472918	     -7.18960185	      4.34513109
      1.40000000	     -0.69267446	      2.42964649	     -8.67105465	     -0.77949581	      0.91266697	      0.01888823	      7.46632803	     -3.25099101	      4.02686313	    -63.53509546	    -21.16988985	      7.74049658	     17.24018778	      1.16836586	    -15.78575812	    -28.26299995	      8.75089165	     -4.41654229	     -7.45308368	     -7.47496789	      3.75928912
      1.41000000	     -0.47474489	      2.64832868	     -8.65427036	     -0.77105117	      0.91356873	      0.01764954	      9.45547595	     -3.35825589	      3.94771065	    -65.87217107	    -20.09069576	      7.29956513	     16.23224488	      1.65397130	    -15.90343778	    -27.80903948	      9.07394737	     -4.34391994	     -7.77373138	     -7.69875181	      3.18800015
      1.42000000	     -0.23388503	      2.78437587	     -8.60740861	     -0.76257826	      0.91453925	      0.01643716	     11.33482180	     -3.35657870	      3.84650561	    -67.83279051	    -18.82037905	      6.76088285	     15.15966413	      2.07211719	    -15.95351992	    -27.29958435	      9.40144289	     -4.25871057	     -8.12881322	     -7.82652545	      2.62357800
